<svg width="13" height="14" viewBox="0 0 13 14" fill="none" xmlns="http://www.w3.org/2000/svg">
<path d="M4.27949 6.41625H2.99154V7.66457H4.27949V6.41625ZM6.85538 6.41625H5.56743V7.66457H6.85538V6.41625ZM9.43127 6.41625H8.14332V7.66457H9.43127V6.41625ZM10.7192 2.04714H10.0752V0.798828H8.78729V2.04714H3.63551V0.798828H2.34757V2.04714H1.70359C0.988785 2.04714 0.422089 2.60889 0.422089 3.29546L0.415649 12.0337C0.415649 12.3647 0.551343 12.6823 0.79288 12.9164C1.03442 13.1505 1.36201 13.282 1.70359 13.282H10.7192C11.4276 13.282 12.0072 12.7202 12.0072 12.0337V3.29546C12.0072 2.60889 11.4276 2.04714 10.7192 2.04714ZM10.7192 12.0337H1.70359V5.16794H10.7192V12.0337Z" fill="white"/>
</svg>
