<svg width="12" height="15" viewBox="0 0 12 15" fill="none" xmlns="http://www.w3.org/2000/svg">
<path d="M5.76558 0.108398C4.3472 0.110151 2.9874 0.701206 1.98446 1.75191C0.981516 2.80261 0.417328 4.22717 0.415655 5.71308C0.413956 6.92738 0.792572 8.10872 1.49342 9.07589C1.49342 9.07589 1.63933 9.27715 1.66316 9.3062L5.76558 14.3749L9.86994 9.30365C9.89134 9.27664 10.0377 9.07589 10.0377 9.07589L10.0382 9.07437C10.7387 8.10762 11.1172 6.92682 11.1155 5.71308C11.1138 4.22717 10.5496 2.80261 9.54669 1.75191C8.54375 0.701206 7.18395 0.110151 5.76558 0.108398V0.108398ZM5.76558 7.75115C5.38081 7.75115 5.00468 7.63162 4.68476 7.40767C4.36483 7.18373 4.11548 6.86543 3.96824 6.49302C3.82099 6.12061 3.78247 5.71082 3.85753 5.31548C3.9326 4.92013 4.11788 4.55698 4.38995 4.27195C4.66203 3.98692 5.00867 3.79282 5.38604 3.71418C5.76342 3.63554 6.15458 3.6759 6.51006 3.83015C6.86554 3.98441 7.16937 4.24564 7.38314 4.58079C7.59691 4.91595 7.711 5.30999 7.711 5.71308C7.71036 6.25341 7.50519 6.7714 7.14049 7.15347C6.77579 7.53554 6.28134 7.75048 5.76558 7.75115V7.75115Z" fill="white"/>
</svg>